<?xml version="1.0" encoding="UTF-8" standalone="no"?>
<!DOCTYPE svg PUBLIC "-//W3C//DTD SVG 1.1//EN"
 "http://www.w3.org/Graphics/SVG/1.1/DTD/svg11.dtd">
<!-- Generated by graphviz version 2.40.1 (20161225.0304)
 -->
<!-- Title: %3 Pages: 1 -->
<svg width="760pt" height="404pt"
 viewBox="0.00 0.00 759.87 404.00" xmlns="http://www.w3.org/2000/svg" xmlns:xlink="http://www.w3.org/1999/xlink">
<g id="graph0" class="graph" transform="scale(1 1) rotate(0) translate(4 400)">
<title>%3</title>
<polygon fill="#ffffff" stroke="transparent" points="-4,4 -4,-400 755.8706,-400 755.8706,4 -4,4"/>
<!-- [root] kubernetes_deployment.mongo (expand) -->
<g id="node1" class="node">
<title>[root] kubernetes_deployment.mongo (expand)</title>
<polygon fill="none" stroke="#000000" points="353.9353,-180 111.9353,-180 111.9353,-144 353.9353,-144 353.9353,-180"/>
<text text-anchor="middle" x="232.9353" y="-158.3" font-family="Times,serif" font-size="14.00" fill="#000000">kubernetes_deployment.mongo</text>
</g>
<!-- [root] kubernetes_namespace.sample&#45;nodejs (expand) -->
<g id="node3" class="node">
<title>[root] kubernetes_namespace.sample&#45;nodejs (expand)</title>
<polygon fill="none" stroke="#000000" points="521.9353,-108 229.9353,-108 229.9353,-72 521.9353,-72 521.9353,-108"/>
<text text-anchor="middle" x="375.9353" y="-86.3" font-family="Times,serif" font-size="14.00" fill="#000000">kubernetes_namespace.sample&#45;nodejs</text>
</g>
<!-- [root] kubernetes_deployment.mongo (expand)&#45;&gt;[root] kubernetes_namespace.sample&#45;nodejs (expand) -->
<g id="edge1" class="edge">
<title>[root] kubernetes_deployment.mongo (expand)&#45;&gt;[root] kubernetes_namespace.sample&#45;nodejs (expand)</title>
<path fill="none" stroke="#000000" d="M269.0203,-143.8314C287.7342,-134.4089 310.7785,-122.8062 330.6753,-112.7883"/>
<polygon fill="#000000" stroke="#000000" points="332.5042,-115.7861 339.8619,-108.1628 329.3562,-109.5339 332.5042,-115.7861"/>
</g>
<!-- [root] kubernetes_deployment.sample&#45;nodejs (expand) -->
<g id="node2" class="node">
<title>[root] kubernetes_deployment.sample&#45;nodejs (expand)</title>
<polygon fill="none" stroke="#000000" points="667.9353,-180 371.9353,-180 371.9353,-144 667.9353,-144 667.9353,-180"/>
<text text-anchor="middle" x="519.9353" y="-158.3" font-family="Times,serif" font-size="14.00" fill="#000000">kubernetes_deployment.sample&#45;nodejs</text>
</g>
<!-- [root] kubernetes_deployment.sample&#45;nodejs (expand)&#45;&gt;[root] kubernetes_namespace.sample&#45;nodejs (expand) -->
<g id="edge2" class="edge">
<title>[root] kubernetes_deployment.sample&#45;nodejs (expand)&#45;&gt;[root] kubernetes_namespace.sample&#45;nodejs (expand)</title>
<path fill="none" stroke="#000000" d="M483.598,-143.8314C464.5957,-134.3302 441.1595,-122.6121 421.0101,-112.5374"/>
<polygon fill="#000000" stroke="#000000" points="422.5208,-109.3797 412.0113,-108.038 419.3903,-115.6407 422.5208,-109.3797"/>
</g>
<!-- [root] provider[&quot;registry.terraform.io/hashicorp/kubernetes&quot;] -->
<g id="node6" class="node">
<title>[root] provider[&quot;registry.terraform.io/hashicorp/kubernetes&quot;]</title>
<polygon fill="none" stroke="#000000" points="375.9353,-36 .0647,-18 375.9353,0 751.806,-18 375.9353,-36"/>
<text text-anchor="middle" x="375.9353" y="-14.3" font-family="Times,serif" font-size="14.00" fill="#000000">provider[&quot;registry.terraform.io/hashicorp/kubernetes&quot;]</text>
</g>
<!-- [root] kubernetes_namespace.sample&#45;nodejs (expand)&#45;&gt;[root] provider[&quot;registry.terraform.io/hashicorp/kubernetes&quot;] -->
<g id="edge3" class="edge">
<title>[root] kubernetes_namespace.sample&#45;nodejs (expand)&#45;&gt;[root] provider[&quot;registry.terraform.io/hashicorp/kubernetes&quot;]</title>
<path fill="none" stroke="#000000" d="M375.9353,-71.8314C375.9353,-64.131 375.9353,-54.9743 375.9353,-46.4166"/>
<polygon fill="#000000" stroke="#000000" points="379.4354,-46.4132 375.9353,-36.4133 372.4354,-46.4133 379.4354,-46.4132"/>
</g>
<!-- [root] kubernetes_service.mongo (expand) -->
<g id="node4" class="node">
<title>[root] kubernetes_service.mongo (expand)</title>
<polygon fill="none" stroke="#000000" points="353.4353,-252 144.4353,-252 144.4353,-216 353.4353,-216 353.4353,-252"/>
<text text-anchor="middle" x="248.9353" y="-230.3" font-family="Times,serif" font-size="14.00" fill="#000000">kubernetes_service.mongo</text>
</g>
<!-- [root] kubernetes_service.mongo (expand)&#45;&gt;[root] kubernetes_deployment.mongo (expand) -->
<g id="edge4" class="edge">
<title>[root] kubernetes_service.mongo (expand)&#45;&gt;[root] kubernetes_deployment.mongo (expand)</title>
<path fill="none" stroke="#000000" d="M244.8978,-215.8314C243.1866,-208.131 241.1518,-198.9743 239.2501,-190.4166"/>
<polygon fill="#000000" stroke="#000000" points="242.6132,-189.4159 237.0272,-180.4133 235.7799,-190.9344 242.6132,-189.4159"/>
</g>
<!-- [root] kubernetes_service.sample&#45;nodejs (expand) -->
<g id="node5" class="node">
<title>[root] kubernetes_service.sample&#45;nodejs (expand)</title>
<polygon fill="none" stroke="#000000" points="642.4353,-252 379.4353,-252 379.4353,-216 642.4353,-216 642.4353,-252"/>
<text text-anchor="middle" x="510.9353" y="-230.3" font-family="Times,serif" font-size="14.00" fill="#000000">kubernetes_service.sample&#45;nodejs</text>
</g>
<!-- [root] kubernetes_service.sample&#45;nodejs (expand)&#45;&gt;[root] kubernetes_deployment.sample&#45;nodejs (expand) -->
<g id="edge5" class="edge">
<title>[root] kubernetes_service.sample&#45;nodejs (expand)&#45;&gt;[root] kubernetes_deployment.sample&#45;nodejs (expand)</title>
<path fill="none" stroke="#000000" d="M513.2064,-215.8314C514.1689,-208.131 515.3135,-198.9743 516.3832,-190.4166"/>
<polygon fill="#000000" stroke="#000000" points="519.8662,-190.7702 517.6337,-180.4133 512.9203,-189.9019 519.8662,-190.7702"/>
</g>
<!-- [root] provider[&quot;registry.terraform.io/hashicorp/kubernetes&quot;] (close) -->
<g id="node7" class="node">
<title>[root] provider[&quot;registry.terraform.io/hashicorp/kubernetes&quot;] (close)</title>
<ellipse fill="none" stroke="#000000" cx="375.9353" cy="-306" rx="328.4419" ry="18"/>
<text text-anchor="middle" x="375.9353" y="-302.3" font-family="Times,serif" font-size="14.00" fill="#000000">[root] provider[&quot;registry.terraform.io/hashicorp/kubernetes&quot;] (close)</text>
</g>
<!-- [root] provider[&quot;registry.terraform.io/hashicorp/kubernetes&quot;] (close)&#45;&gt;[root] kubernetes_service.mongo (expand) -->
<g id="edge6" class="edge">
<title>[root] provider[&quot;registry.terraform.io/hashicorp/kubernetes&quot;] (close)&#45;&gt;[root] kubernetes_service.mongo (expand)</title>
<path fill="none" stroke="#000000" d="M344.2155,-288.0171C327.6985,-278.6532 307.3166,-267.098 289.6482,-257.0813"/>
<polygon fill="#000000" stroke="#000000" points="291.1164,-253.8904 280.691,-252.0032 287.664,-259.9798 291.1164,-253.8904"/>
</g>
<!-- [root] provider[&quot;registry.terraform.io/hashicorp/kubernetes&quot;] (close)&#45;&gt;[root] kubernetes_service.sample&#45;nodejs (expand) -->
<g id="edge7" class="edge">
<title>[root] provider[&quot;registry.terraform.io/hashicorp/kubernetes&quot;] (close)&#45;&gt;[root] kubernetes_service.sample&#45;nodejs (expand)</title>
<path fill="none" stroke="#000000" d="M409.6533,-288.0171C427.3717,-278.5673 449.2744,-266.8858 468.174,-256.806"/>
<polygon fill="#000000" stroke="#000000" points="470.0029,-259.7974 477.1793,-252.0032 466.7087,-253.6209 470.0029,-259.7974"/>
</g>
<!-- [root] root -->
<g id="node8" class="node">
<title>[root] root</title>
<ellipse fill="none" stroke="#000000" cx="375.9353" cy="-378" rx="58.4896" ry="18"/>
<text text-anchor="middle" x="375.9353" y="-374.3" font-family="Times,serif" font-size="14.00" fill="#000000">[root] root</text>
</g>
<!-- [root] root&#45;&gt;[root] provider[&quot;registry.terraform.io/hashicorp/kubernetes&quot;] (close) -->
<g id="edge8" class="edge">
<title>[root] root&#45;&gt;[root] provider[&quot;registry.terraform.io/hashicorp/kubernetes&quot;] (close)</title>
<path fill="none" stroke="#000000" d="M375.9353,-359.8314C375.9353,-352.131 375.9353,-342.9743 375.9353,-334.4166"/>
<polygon fill="#000000" stroke="#000000" points="379.4354,-334.4132 375.9353,-324.4133 372.4354,-334.4133 379.4354,-334.4132"/>
</g>
</g>
</svg>
